<mxfile host="Electron" modified="2023-10-28T19:33:41.366Z" agent="Mozilla/5.0 (Macintosh; Intel Mac OS X 10_15_7) AppleWebKit/537.36 (KHTML, like Gecko) draw.io/22.0.3 Chrome/114.0.5735.289 Electron/25.8.4 Safari/537.36" etag="5uP_aQYBSuXblqwZdX9B" version="22.0.3" type="device">
  <diagram name="Pagina-1" id="1O0dHvWecXR4lpYpU5So">
    <mxGraphModel dx="930" dy="890" grid="1" gridSize="10" guides="1" tooltips="1" connect="1" arrows="1" fold="1" page="1" pageScale="1" pageWidth="827" pageHeight="1169" math="0" shadow="0">
      <root>
        <mxCell id="0" />
        <mxCell id="1" parent="0" />
        <mxCell id="ZU1rzsUTpYFz2EoDvKkL-1" value="InterfacciaRegistrazioni" style="shape=umlFrame;whiteSpace=wrap;html=1;pointerEvents=0;width=150;height=30;fillColor=#ff9933;strokeColor=#ff9933;strokeWidth=3;fontStyle=1;fontColor=#FFFFFF;" parent="1" vertex="1">
          <mxGeometry x="264" y="184" width="300" height="230" as="geometry" />
        </mxCell>
        <mxCell id="ZU1rzsUTpYFz2EoDvKkL-2" value="" style="shape=folder;fontStyle=1;spacingTop=10;tabWidth=120;tabHeight=30;tabPosition=left;html=1;whiteSpace=wrap;fillColor=none;strokeColor=#ff9933;strokeWidth=2;" parent="1" vertex="1">
          <mxGeometry x="330.25" y="244" width="163.75" height="80" as="geometry" />
        </mxCell>
        <mxCell id="ZU1rzsUTpYFz2EoDvKkL-3" value="ViewRegistrazione" style="text;html=1;align=center;verticalAlign=middle;resizable=0;points=[];autosize=1;strokeColor=none;fillColor=none;fontSize=11;fontColor=#ff9933;fontStyle=1" parent="1" vertex="1">
          <mxGeometry x="331.5" y="244" width="120" height="30" as="geometry" />
        </mxCell>
        <mxCell id="ZU1rzsUTpYFz2EoDvKkL-4" value="Registrazione" style="shape=umlFrame;whiteSpace=wrap;html=1;pointerEvents=0;width=110;height=30;strokeColor=#82b366;strokeWidth=2;fontStyle=1;fontColor=#FFFFFF;swimlaneFillColor=none;fillColor=#82b366;" parent="1" vertex="1">
          <mxGeometry x="229" y="504" width="370" height="210" as="geometry" />
        </mxCell>
        <mxCell id="ZU1rzsUTpYFz2EoDvKkL-5" value="&lt;p style=&quot;margin:0px;margin-top:4px;text-align:center;&quot;&gt;&lt;b&gt;RegistrazioneController&lt;/b&gt;&lt;/p&gt;&lt;hr size=&quot;1&quot;&gt;&lt;p style=&quot;margin:0px;margin-left:4px;&quot;&gt;+ registra(Nome, Cognome, Email, username, password)&lt;/p&gt;" style="verticalAlign=top;align=left;overflow=fill;fontSize=12;fontFamily=Helvetica;html=1;whiteSpace=wrap;" parent="1" vertex="1">
          <mxGeometry x="281.5" y="564" width="267.5" height="80" as="geometry" />
        </mxCell>
        <mxCell id="ZU1rzsUTpYFz2EoDvKkL-6" value="Use" style="endArrow=open;endSize=12;dashed=1;html=1;rounded=0;exitX=0.5;exitY=1;exitDx=0;exitDy=0;exitPerimeter=0;entryX=0.5;entryY=0;entryDx=0;entryDy=0;" parent="1" source="ZU1rzsUTpYFz2EoDvKkL-2" target="ZU1rzsUTpYFz2EoDvKkL-5" edge="1">
          <mxGeometry width="160" relative="1" as="geometry">
            <mxPoint x="349" y="554" as="sourcePoint" />
            <mxPoint x="509" y="554" as="targetPoint" />
            <mxPoint as="offset" />
          </mxGeometry>
        </mxCell>
        <mxCell id="ZU1rzsUTpYFz2EoDvKkL-7" value="Log" style="shape=umlFrame;whiteSpace=wrap;html=1;pointerEvents=0;width=78;height=30;strokeColor=#82b366;strokeWidth=2;fontStyle=1;fillColor=#82b366;fontColor=#FFFFFF;" parent="1" vertex="1">
          <mxGeometry x="296.5" y="804" width="237.5" height="180" as="geometry" />
        </mxCell>
        <mxCell id="ZU1rzsUTpYFz2EoDvKkL-8" value="&lt;p style=&quot;margin:0px;margin-top:4px;text-align:center;&quot;&gt;&lt;b&gt;Logger&lt;/b&gt;&lt;/p&gt;&lt;hr size=&quot;1&quot;&gt;&lt;p style=&quot;margin:0px;margin-left:4px;&quot;&gt;+ aggiungiVoce(voce)&lt;/p&gt;" style="verticalAlign=top;align=left;overflow=fill;fontSize=12;fontFamily=Helvetica;html=1;whiteSpace=wrap;" parent="1" vertex="1">
          <mxGeometry x="336.5" y="859" width="157.5" height="70" as="geometry" />
        </mxCell>
        <mxCell id="ZU1rzsUTpYFz2EoDvKkL-9" value="Use" style="endArrow=open;endSize=12;dashed=1;html=1;rounded=0;exitX=0.5;exitY=1;exitDx=0;exitDy=0;entryX=0.5;entryY=0;entryDx=0;entryDy=0;" parent="1" source="ZU1rzsUTpYFz2EoDvKkL-5" target="ZU1rzsUTpYFz2EoDvKkL-8" edge="1">
          <mxGeometry x="0.2093" width="160" relative="1" as="geometry">
            <mxPoint x="864" y="667" as="sourcePoint" />
            <mxPoint x="952" y="974" as="targetPoint" />
            <mxPoint as="offset" />
          </mxGeometry>
        </mxCell>
      </root>
    </mxGraphModel>
  </diagram>
</mxfile>
